<svg width="185" height="38" viewBox="0 0 185 38" fill="none" xmlns="http://www.w3.org/2000/svg">
<path fill-rule="evenodd" clip-rule="evenodd" d="M17.175 0.0389708C13.1876 0.424668 9.64992 2.9119 8.55846 6.0972C8.31171 6.81727 8.21419 7.22276 7.79696 9.2704C7.65581 9.9626 7.36104 11.1421 7.25985 11.4185C6.83639 12.5763 6.14822 13.7114 5.38379 14.5132C4.72275 15.2058 4.77188 15.3015 5.57701 14.8901C7.24518 14.0374 8.69961 12.782 9.2283 11.7389C9.65176 10.9034 9.75771 10.5543 10.0536 9.02659C10.3014 7.74521 10.7432 6.63945 11.3166 5.86659C11.8424 5.15752 13.728 3.46112 13.9901 3.46112C14.0187 3.46112 14.2039 3.35113 14.4015 3.21694C14.969 2.83197 15.1179 3.00429 14.7457 3.61474C14.2673 4.39933 14.0279 6.33295 14.4411 6.07484C14.5485 6.00774 14.6365 5.90655 14.6365 5.85009C14.6365 5.16522 17.0988 3.73169 18.9327 3.34929C25.7751 1.92273 34.4068 9.3573 36.4056 18.3999C36.4709 18.6951 36.564 19.0936 36.6121 19.2853C36.9347 20.5649 36.9321 23.7348 36.6077 24.7951C35.6856 27.8103 34.4742 29.5349 32.2051 31.063C30.4031 32.2769 30.2132 32.2047 31.1683 30.6689C33.187 27.4235 33.8238 22.5561 32.8376 17.9116C32.7521 17.5086 32.6495 17.0221 32.6095 16.83C32.5696 16.6379 32.4988 16.4197 32.453 16.3453C32.4068 16.2705 32.3441 16.0564 32.3137 15.869C32.2832 15.6821 32.2535 16.5374 32.2473 17.7697C32.2257 22.1 31.1954 25.7142 29.0576 28.9597C26.8039 32.3807 23.9669 33.1015 22.3919 30.6535C21.7235 29.6145 22.6089 26.2906 24.2503 23.6757C24.4505 23.3571 25.0158 22.3548 25.1885 22.0123C25.3502 21.6923 25.5621 21.1456 25.8129 20.4014C25.9577 19.9717 26.1117 19.5324 26.155 19.425C26.1982 19.3176 26.3097 18.944 26.4021 18.595C26.4945 18.2459 26.6052 17.8507 26.6477 17.7161C27.5144 14.984 27.5053 10.6581 26.6287 8.53824C26.3236 7.80021 25.7674 6.78097 25.6703 6.7806C25.6432 6.7806 25.6208 7.8464 25.6208 9.14868C25.6208 10.6629 25.5746 11.7804 25.4928 12.2486C25.3209 13.2326 25.0829 14.3798 24.9766 14.7384C24.9286 14.8993 24.8043 15.3169 24.7005 15.6659C24.4003 16.6731 24.0329 17.6652 23.6659 18.4597C23.4793 18.8641 23.3264 19.212 23.3264 19.2322C23.3264 19.2527 23.1064 19.6512 22.8381 20.1179C22.5697 20.5847 22.3497 20.9964 22.3497 21.0331C22.3497 21.0697 22.2412 21.2017 22.1085 21.3264C21.8298 21.5881 21.8089 21.5573 21.7271 20.7603C21.6623 20.1264 21.5402 19.7286 21.0698 18.6195C20.9052 18.2316 20.7882 18.2115 20.786 18.5708C20.771 20.8153 19.4383 23.2123 17.3213 24.8035C16.6673 25.2948 15.1296 26.1131 14.8601 26.1131C14.7894 26.1131 14.6552 26.1542 14.5621 26.204C13.8149 26.6051 10.7407 26.7558 9.52454 26.4512C8.30145 26.1447 7.19385 25.6189 6.18488 24.8666C4.93503 23.9342 4.80011 23.6937 5.34126 23.3648C5.53998 23.2442 5.72439 23.1199 5.75152 23.0891C5.77829 23.058 5.99754 22.8798 6.23841 22.6932C6.69964 22.3364 7.50439 21.5218 7.50733 21.4092C7.50806 21.3726 7.56599 21.2849 7.63601 21.2138C8.0877 20.7555 8.24022 19.3605 7.90952 18.7126C7.0538 17.0353 2.23515 16.2672 0.837552 17.5853C-0.380033 18.7339 -0.257211 20.9693 1.12206 22.7757C1.50116 23.2721 1.51839 23.3304 1.59501 24.3559C1.7534 26.471 2.65641 27.4304 4.6003 27.5489L5.56821 27.6079L5.81495 28.0948C6.70294 29.8473 9.827 31.1044 12.1236 30.6337C13.2121 30.4108 13.2697 30.4342 13.2697 31.1063C13.2697 34.5163 15.7298 35.9297 19.9636 34.9526C20.2284 34.8914 20.3398 34.9471 20.94 35.4395C25.0547 38.8155 32.6737 36.7517 36.8071 31.1415C37.0443 30.8192 37.2628 30.5336 37.2925 30.5068C37.5338 30.2876 38.7715 27.9848 39.0502 27.2361C40.12 24.3639 40.2916 21.179 39.537 18.2045C38.1493 12.7343 35.5844 8.24933 32.2774 5.50949C31.8572 5.16156 31.462 4.83085 31.3985 4.77439C30.3342 3.82445 27.5632 2.2417 25.5233 1.41897C25.4158 1.37571 25.1618 1.26829 24.9583 1.17993C24.7552 1.09194 24.5238 1.02008 24.4446 1.02008C24.3651 1.02008 24.2236 0.978649 24.1304 0.928054C23.8243 0.762336 22.9433 0.542357 20.9829 0.142362C20.368 0.0169734 18.0524 -0.0460879 17.175 0.0389708ZM16.345 10.161C14.7575 10.5522 13.3584 11.7067 12.609 13.2436C11.941 14.6141 12.0231 14.7849 12.9005 13.8518C13.8325 12.8616 13.9722 12.7816 14.4466 12.9716C15.328 13.3243 16.4821 13.1538 18.2247 12.4135C18.668 12.2251 19.2612 12.0176 19.5428 11.9523C19.8247 11.8871 20.107 11.8196 20.1697 11.8027C20.5268 11.7074 19.6945 10.7432 18.9407 10.3787C18.4993 10.165 16.8792 10.0293 16.345 10.161Z" fill="#36373E"/>
<path d="M60.9141 18.716C60.9141 20.0024 60.6667 21.078 60.1719 21.9425C59.6823 22.8019 58.9714 23.4504 58.0391 23.8879C57.1068 24.3202 55.9844 24.5363 54.6719 24.5363H51.4375V13.1144H55.0234C56.2214 13.1144 57.2604 13.328 58.1406 13.755C59.0208 14.1769 59.7031 14.8045 60.1875 15.6379C60.6719 16.466 60.9141 17.492 60.9141 18.716ZM58.3984 18.7785C58.3984 17.9347 58.2734 17.242 58.0234 16.7004C57.7786 16.1535 57.4141 15.7498 56.9297 15.4894C56.4505 15.229 55.8568 15.0988 55.1484 15.0988H53.8594V22.5363H54.8984C56.0807 22.5363 56.9583 22.2212 57.5312 21.591C58.1094 20.9608 58.3984 20.0233 58.3984 18.7785Z" fill="#36373E"/>
<path d="M71.1813 20.1535C71.1813 20.8827 71.0823 21.5285 70.8844 22.091C70.6917 22.6535 70.4078 23.13 70.0328 23.5207C69.663 23.9061 69.2151 24.1978 68.6891 24.3957C68.1682 24.5936 67.5797 24.6925 66.9234 24.6925C66.3089 24.6925 65.7438 24.5936 65.2281 24.3957C64.7177 24.1978 64.2724 23.9061 63.8922 23.5207C63.5172 23.13 63.2255 22.6535 63.0172 22.091C62.8141 21.5285 62.7125 20.8827 62.7125 20.1535C62.7125 19.1847 62.8844 18.3644 63.2281 17.6925C63.5719 17.0207 64.0615 16.5103 64.6969 16.1613C65.3323 15.8123 66.0901 15.6379 66.9703 15.6379C67.788 15.6379 68.512 15.8123 69.1422 16.1613C69.7776 16.5103 70.275 17.0207 70.6344 17.6925C70.999 18.3644 71.1813 19.1847 71.1813 20.1535ZM65.1422 20.1535C65.1422 20.7264 65.2047 21.2082 65.3297 21.5988C65.4547 21.9894 65.65 22.2837 65.9156 22.4816C66.1813 22.6795 66.5276 22.7785 66.9547 22.7785C67.3766 22.7785 67.7177 22.6795 67.9781 22.4816C68.2438 22.2837 68.4365 21.9894 68.5563 21.5988C68.6813 21.2082 68.7438 20.7264 68.7438 20.1535C68.7438 19.5754 68.6813 19.0962 68.5563 18.716C68.4365 18.3306 68.2438 18.0415 67.9781 17.8488C67.7125 17.6561 67.3661 17.5597 66.9391 17.5597C66.3089 17.5597 65.8505 17.7759 65.5641 18.2082C65.2828 18.6405 65.1422 19.2889 65.1422 20.1535Z" fill="#36373E"/>
<path d="M75.8547 28.38C74.6359 28.38 73.7036 28.1665 73.0578 27.7394C72.4172 27.3175 72.0969 26.7238 72.0969 25.9582C72.0969 25.4321 72.2609 24.992 72.5891 24.6379C72.9172 24.2837 73.399 24.0311 74.0344 23.88C73.7896 23.7759 73.576 23.6066 73.3938 23.3722C73.2115 23.1327 73.1203 22.88 73.1203 22.6144C73.1203 22.2811 73.2167 22.005 73.4094 21.7863C73.6021 21.5623 73.8807 21.3436 74.2453 21.13C73.787 20.9321 73.4224 20.6144 73.1516 20.1769C72.8859 19.7394 72.7531 19.2238 72.7531 18.63C72.7531 17.9946 72.8911 17.4556 73.1672 17.0129C73.4484 16.5649 73.8547 16.2238 74.3859 15.9894C74.9224 15.755 75.5734 15.6379 76.3391 15.6379C76.5005 15.6379 76.688 15.6483 76.9016 15.6691C77.1151 15.6899 77.3104 15.7134 77.4875 15.7394C77.6698 15.7655 77.7922 15.7863 77.8547 15.8019H80.9016V17.0129L79.5344 17.3644C79.6594 17.5571 79.7531 17.7629 79.8156 17.9816C79.8781 18.2004 79.9094 18.4321 79.9094 18.6769C79.9094 19.6144 79.5813 20.3462 78.925 20.8722C78.274 21.3931 77.3677 21.6535 76.2063 21.6535C75.9302 21.6379 75.6698 21.617 75.425 21.591C75.3052 21.6847 75.2141 21.7837 75.1516 21.8879C75.0891 21.992 75.0578 22.1014 75.0578 22.216C75.0578 22.3306 75.1047 22.4269 75.1984 22.505C75.2974 22.578 75.4432 22.6353 75.6359 22.6769C75.8339 22.7134 76.0786 22.7316 76.3703 22.7316H77.8547C78.813 22.7316 79.5422 22.9373 80.0422 23.3488C80.5474 23.7603 80.8 24.3644 80.8 25.1613C80.8 26.1821 80.3729 26.9738 79.5188 27.5363C78.6698 28.0988 77.4484 28.38 75.8547 28.38ZM75.9563 26.8254C76.524 26.8254 77.0109 26.7707 77.4172 26.6613C77.8286 26.5571 78.1438 26.4061 78.3625 26.2082C78.5813 26.0155 78.6906 25.7837 78.6906 25.5129C78.6906 25.2941 78.6255 25.1196 78.4953 24.9894C78.3703 24.8644 78.1776 24.7759 77.9172 24.7238C77.662 24.6717 77.3339 24.6457 76.9328 24.6457H75.6984C75.4068 24.6457 75.1438 24.6925 74.9094 24.7863C74.6802 24.88 74.4979 25.0103 74.3625 25.1769C74.2271 25.3488 74.1594 25.5467 74.1594 25.7707C74.1594 26.0988 74.3156 26.3566 74.6281 26.5441C74.9458 26.7316 75.3885 26.8254 75.9563 26.8254ZM76.3391 20.2004C76.787 20.2004 77.1151 20.0623 77.3234 19.7863C77.5318 19.5103 77.6359 19.1353 77.6359 18.6613C77.6359 18.1353 77.5266 17.742 77.3078 17.4816C77.0943 17.216 76.7714 17.0832 76.3391 17.0832C75.9016 17.0832 75.5734 17.216 75.3547 17.4816C75.1359 17.742 75.0266 18.1353 75.0266 18.6613C75.0266 19.1353 75.1333 19.5103 75.3469 19.7863C75.5656 20.0623 75.8964 20.2004 76.3391 20.2004Z" fill="#36373E"/>
<path d="M88.5906 21.9425C88.5906 22.5363 88.45 23.0389 88.1688 23.4504C87.8927 23.8566 87.4787 24.1665 86.9266 24.38C86.3745 24.5884 85.687 24.6925 84.8641 24.6925C84.2547 24.6925 83.7313 24.6535 83.2938 24.5754C82.8615 24.4972 82.424 24.367 81.9813 24.1847V22.216C82.4552 22.4295 82.963 22.6066 83.5047 22.7472C84.0516 22.8827 84.5307 22.9504 84.9422 22.9504C85.4057 22.9504 85.7365 22.8827 85.9344 22.7472C86.1375 22.6066 86.2391 22.4243 86.2391 22.2004C86.2391 22.0545 86.1974 21.9243 86.1141 21.8097C86.0359 21.6899 85.8641 21.5571 85.5984 21.4113C85.3328 21.2603 84.9162 21.0649 84.3484 20.8254C83.8016 20.5962 83.351 20.3644 82.9969 20.13C82.6479 19.8957 82.3875 19.6196 82.2156 19.3019C82.049 18.979 81.9656 18.5702 81.9656 18.0754C81.9656 17.2681 82.2781 16.6613 82.9031 16.255C83.5333 15.8436 84.3745 15.6379 85.4266 15.6379C85.9682 15.6379 86.4839 15.6925 86.9734 15.8019C87.4682 15.9113 87.976 16.0858 88.4969 16.3254L87.7781 18.0441C87.3458 17.8566 86.937 17.703 86.5516 17.5832C86.1714 17.4634 85.7833 17.4035 85.3875 17.4035C85.0385 17.4035 84.7755 17.4504 84.5984 17.5441C84.4214 17.6379 84.3328 17.7811 84.3328 17.9738C84.3328 18.1144 84.3771 18.2394 84.4656 18.3488C84.5594 18.4582 84.7365 18.5806 84.9969 18.716C85.2625 18.8462 85.6505 19.0155 86.1609 19.2238C86.6557 19.4269 87.0854 19.6405 87.45 19.8644C87.8146 20.0832 88.0958 20.3566 88.2938 20.6847C88.4917 21.0077 88.5906 21.4269 88.5906 21.9425Z" fill="#36373E"/>
<path d="M95.0938 13.1144H98.6484C100.169 13.1144 101.32 13.328 102.102 13.755C102.883 14.1821 103.273 14.9321 103.273 16.005C103.273 16.4373 103.203 16.828 103.062 17.1769C102.927 17.5259 102.729 17.8123 102.469 18.0363C102.208 18.2603 101.891 18.4061 101.516 18.4738V18.5519C101.896 18.63 102.24 18.7655 102.547 18.9582C102.854 19.1457 103.099 19.4217 103.281 19.7863C103.469 20.1457 103.562 20.6248 103.562 21.2238C103.562 21.9165 103.393 22.5103 103.055 23.005C102.716 23.4998 102.232 23.88 101.602 24.1457C100.977 24.4061 100.232 24.5363 99.3672 24.5363H95.0938V13.1144ZM97.5156 17.6379H98.9219C99.625 17.6379 100.112 17.5285 100.383 17.3097C100.654 17.0858 100.789 16.7577 100.789 16.3254C100.789 15.8879 100.628 15.5754 100.305 15.3879C99.987 15.1952 99.4818 15.0988 98.7891 15.0988H97.5156V17.6379ZM97.5156 19.5597V22.5363H99.0938C99.8229 22.5363 100.331 22.3957 100.617 22.1144C100.904 21.8332 101.047 21.4556 101.047 20.9816C101.047 20.7004 100.984 20.453 100.859 20.2394C100.734 20.0259 100.523 19.8592 100.227 19.7394C99.9349 19.6196 99.5312 19.5597 99.0156 19.5597H97.5156Z" fill="#36373E"/>
<path d="M110.681 15.6379C110.801 15.6379 110.939 15.6457 111.095 15.6613C111.257 15.6717 111.387 15.6873 111.486 15.7082L111.306 17.9425C111.228 17.9165 111.116 17.8983 110.97 17.8879C110.83 17.8722 110.707 17.8644 110.603 17.8644C110.296 17.8644 109.996 17.9035 109.705 17.9816C109.418 18.0597 109.16 18.1873 108.931 18.3644C108.702 18.5363 108.52 18.7655 108.384 19.0519C108.254 19.3332 108.189 19.6795 108.189 20.091V24.5363H105.806V15.8019H107.611L107.963 17.2707H108.08C108.252 16.9738 108.465 16.703 108.72 16.4582C108.981 16.2082 109.275 16.0103 109.603 15.8644C109.936 15.7134 110.296 15.6379 110.681 15.6379Z" fill="#36373E"/>
<path d="M116.823 15.6379C117.631 15.6379 118.326 15.7941 118.909 16.1066C119.493 16.4139 119.943 16.8618 120.261 17.4504C120.579 18.0389 120.738 18.7577 120.738 19.6066V20.7629H115.105C115.131 21.4347 115.331 21.9634 115.706 22.3488C116.086 22.729 116.613 22.9191 117.284 22.9191C117.842 22.9191 118.352 22.8618 118.816 22.7472C119.279 22.6327 119.756 22.4608 120.245 22.2316V24.0754C119.813 24.2889 119.36 24.4452 118.886 24.5441C118.417 24.6431 117.847 24.6925 117.175 24.6925C116.3 24.6925 115.524 24.5311 114.847 24.2082C114.175 23.8853 113.646 23.3931 113.261 22.7316C112.881 22.0702 112.691 21.2368 112.691 20.2316C112.691 19.2108 112.863 18.3618 113.206 17.6847C113.555 17.0024 114.04 16.492 114.659 16.1535C115.279 15.8097 116.001 15.6379 116.823 15.6379ZM116.839 17.3332C116.376 17.3332 115.99 17.4816 115.683 17.7785C115.381 18.0754 115.206 18.5415 115.159 19.1769H118.503C118.498 18.8228 118.433 18.5077 118.308 18.2316C118.188 17.9556 118.006 17.7368 117.761 17.5754C117.521 17.4139 117.214 17.3332 116.839 17.3332Z" fill="#36373E"/>
<path d="M126.427 15.6379C127.234 15.6379 127.929 15.7941 128.512 16.1066C129.096 16.4139 129.546 16.8618 129.864 17.4504C130.182 18.0389 130.341 18.7577 130.341 19.6066V20.7629H124.708C124.734 21.4347 124.934 21.9634 125.309 22.3488C125.69 22.729 126.216 22.9191 126.887 22.9191C127.445 22.9191 127.955 22.8618 128.419 22.7472C128.882 22.6327 129.359 22.4608 129.848 22.2316V24.0754C129.416 24.2889 128.963 24.4452 128.489 24.5441C128.02 24.6431 127.45 24.6925 126.778 24.6925C125.903 24.6925 125.127 24.5311 124.45 24.2082C123.778 23.8853 123.249 23.3931 122.864 22.7316C122.484 22.0702 122.294 21.2368 122.294 20.2316C122.294 19.2108 122.466 18.3618 122.809 17.6847C123.158 17.0024 123.643 16.492 124.262 16.1535C124.882 15.8097 125.604 15.6379 126.427 15.6379ZM126.442 17.3332C125.979 17.3332 125.593 17.4816 125.286 17.7785C124.984 18.0754 124.809 18.5415 124.762 19.1769H128.106C128.101 18.8228 128.036 18.5077 127.911 18.2316C127.791 17.9556 127.609 17.7368 127.364 17.5754C127.124 17.4139 126.817 17.3332 126.442 17.3332Z" fill="#36373E"/>
<path d="M135.194 24.6925C134.22 24.6925 133.426 24.3123 132.811 23.5519C132.202 22.7863 131.897 21.6639 131.897 20.1847C131.897 18.6899 132.207 17.5597 132.827 16.7941C133.446 16.0233 134.256 15.6379 135.256 15.6379C135.673 15.6379 136.04 15.6952 136.358 15.8097C136.676 15.9243 136.949 16.078 137.178 16.2707C137.413 16.4634 137.61 16.6795 137.772 16.9191H137.85C137.819 16.7524 137.78 16.5077 137.733 16.1847C137.691 15.8566 137.67 15.5207 137.67 15.1769V12.38H140.061V24.5363H138.233L137.772 23.4035H137.67C137.519 23.6431 137.329 23.8618 137.1 24.0597C136.876 24.2524 136.608 24.4061 136.295 24.5207C135.983 24.6353 135.616 24.6925 135.194 24.6925ZM136.03 22.7941C136.681 22.7941 137.139 22.6014 137.405 22.216C137.676 21.8254 137.819 21.2394 137.834 20.4582V20.2004C137.834 19.3514 137.704 18.703 137.444 18.255C137.183 17.8019 136.699 17.5754 135.991 17.5754C135.465 17.5754 135.053 17.8019 134.756 18.255C134.459 18.7082 134.311 19.3618 134.311 20.216C134.311 21.0702 134.459 21.7134 134.756 22.1457C135.058 22.578 135.483 22.7941 136.03 22.7941Z" fill="#36373E"/>
<path d="M148.797 21.9425C148.797 22.5363 148.656 23.0389 148.375 23.4504C148.099 23.8566 147.685 24.1665 147.133 24.38C146.581 24.5884 145.893 24.6925 145.07 24.6925C144.461 24.6925 143.938 24.6535 143.5 24.5754C143.068 24.4972 142.63 24.367 142.188 24.1847V22.216C142.661 22.4295 143.169 22.6066 143.711 22.7472C144.258 22.8827 144.737 22.9504 145.148 22.9504C145.612 22.9504 145.943 22.8827 146.141 22.7472C146.344 22.6066 146.445 22.4243 146.445 22.2004C146.445 22.0545 146.404 21.9243 146.32 21.8097C146.242 21.6899 146.07 21.5571 145.805 21.4113C145.539 21.2603 145.122 21.0649 144.555 20.8254C144.008 20.5962 143.557 20.3644 143.203 20.13C142.854 19.8957 142.594 19.6196 142.422 19.3019C142.255 18.979 142.172 18.5702 142.172 18.0754C142.172 17.2681 142.484 16.6613 143.109 16.255C143.74 15.8436 144.581 15.6379 145.633 15.6379C146.174 15.6379 146.69 15.6925 147.18 15.8019C147.674 15.9113 148.182 16.0858 148.703 16.3254L147.984 18.0441C147.552 17.8566 147.143 17.703 146.758 17.5832C146.378 17.4634 145.99 17.4035 145.594 17.4035C145.245 17.4035 144.982 17.4504 144.805 17.5441C144.628 17.6379 144.539 17.7811 144.539 17.9738C144.539 18.1144 144.583 18.2394 144.672 18.3488C144.766 18.4582 144.943 18.5806 145.203 18.716C145.469 18.8462 145.857 19.0155 146.367 19.2238C146.862 19.4269 147.292 19.6405 147.656 19.8644C148.021 20.0832 148.302 20.3566 148.5 20.6847C148.698 21.0077 148.797 21.4269 148.797 21.9425Z" fill="#36373E"/>
<path d="M162.292 24.5363L161.464 21.8175H157.3L156.472 24.5363H153.863L157.894 13.0675H160.855L164.902 24.5363H162.292ZM160.886 19.7863L160.058 17.13C160.006 16.953 159.935 16.7264 159.847 16.4504C159.764 16.1691 159.678 15.8853 159.589 15.5988C159.506 15.3071 159.438 15.0545 159.386 14.841C159.334 15.0545 159.261 15.3202 159.167 15.6379C159.079 15.9504 158.993 16.2472 158.909 16.5285C158.826 16.8097 158.766 17.0103 158.73 17.13L157.909 19.7863H160.886Z" fill="#36373E"/>
<path d="M171.169 15.6379C172.153 15.6379 172.947 16.0207 173.552 16.7863C174.161 17.5519 174.466 18.6743 174.466 20.1535C174.466 21.1431 174.322 21.9764 174.036 22.6535C173.749 23.3254 173.354 23.8332 172.848 24.1769C172.343 24.5207 171.762 24.6925 171.106 24.6925C170.684 24.6925 170.322 24.6405 170.02 24.5363C169.718 24.4269 169.46 24.2889 169.247 24.1222C169.033 23.9504 168.848 23.7681 168.692 23.5754H168.567C168.609 23.7837 168.64 23.9972 168.661 24.216C168.682 24.4347 168.692 24.6483 168.692 24.8566V28.38H166.309V15.8019H168.247L168.583 16.9347H168.692C168.848 16.7004 169.039 16.4842 169.262 16.2863C169.486 16.0884 169.755 15.9321 170.067 15.8175C170.385 15.6978 170.752 15.6379 171.169 15.6379ZM170.403 17.5441C169.986 17.5441 169.656 17.63 169.411 17.8019C169.166 17.9738 168.986 18.2316 168.872 18.5754C168.762 18.9191 168.703 19.354 168.692 19.88V20.1379C168.692 20.7004 168.744 21.1769 168.848 21.5675C168.958 21.9582 169.137 22.255 169.387 22.4582C169.643 22.6613 169.992 22.7629 170.434 22.7629C170.799 22.7629 171.098 22.6613 171.333 22.4582C171.567 22.255 171.742 21.9582 171.856 21.5675C171.976 21.1717 172.036 20.6899 172.036 20.1222C172.036 19.2681 171.903 18.6248 171.637 18.1925C171.372 17.7603 170.96 17.5441 170.403 17.5441Z" fill="#36373E"/>
<path d="M181.444 15.6379C182.428 15.6379 183.222 16.0207 183.827 16.7863C184.436 17.5519 184.741 18.6743 184.741 20.1535C184.741 21.1431 184.597 21.9764 184.311 22.6535C184.024 23.3254 183.629 23.8332 183.123 24.1769C182.618 24.5207 182.038 24.6925 181.381 24.6925C180.959 24.6925 180.597 24.6405 180.295 24.5363C179.993 24.4269 179.735 24.2889 179.522 24.1222C179.308 23.9504 179.123 23.7681 178.967 23.5754H178.842C178.884 23.7837 178.915 23.9972 178.936 24.216C178.957 24.4347 178.967 24.6483 178.967 24.8566V28.38H176.584V15.8019H178.522L178.858 16.9347H178.967C179.123 16.7004 179.314 16.4842 179.538 16.2863C179.761 16.0884 180.03 15.9321 180.342 15.8175C180.66 15.6978 181.027 15.6379 181.444 15.6379ZM180.678 17.5441C180.261 17.5441 179.931 17.63 179.686 17.8019C179.441 17.9738 179.261 18.2316 179.147 18.5754C179.038 18.9191 178.978 19.354 178.967 19.88V20.1379C178.967 20.7004 179.019 21.1769 179.123 21.5675C179.233 21.9582 179.413 22.255 179.663 22.4582C179.918 22.6613 180.267 22.7629 180.709 22.7629C181.074 22.7629 181.373 22.6613 181.608 22.4582C181.842 22.255 182.017 21.9582 182.131 21.5675C182.251 21.1717 182.311 20.6899 182.311 20.1222C182.311 19.2681 182.178 18.6248 181.913 18.1925C181.647 17.7603 181.235 17.5441 180.678 17.5441Z" fill="#36373E"/>
</svg>
